<svg enable-background="new 0 0 1600 1200" viewBox="0 0 1600 1200" xmlns="http://www.w3.org/2000/svg"><g fill="#e8e8e8"><path d="m497.2 978.6h274.8 273.8 154.9c1.9 0 1.9-3 0-3-91.6 0-183.2 0-274.8 0-91.3 0-182.6 0-273.8 0-51.6 0-103.3 0-154.9 0-1.9 0-1.9 3 0 3z"/><path d="m1219.2 916.4c-.8 28.8 2.1 57.6 8.7 85.7.4 1.9 3.3 1.1 2.9-.8-6.5-27.8-9.4-56.3-8.5-84.9-.1-1.9-3.1-1.9-3.1 0z"/><path d="m1338.3 918.7c2.8 26.6 1.1 53.5-5 79.5-.4 1.9 2.4 2.7 2.9.8 6.2-26.3 8-53.4 5.1-80.3-.2-1.9-3.2-1.9-3 0z"/><path d="m1229.1 1004.9c34.6 8.8 71.2 7.6 105.1-3.6 1.8-.6 1-3.5-.8-2.9-33.5 11-69.4 12.3-103.5 3.6-1.9-.4-2.7 2.5-.8 2.9z"/><path d="m1220.6 917.8c38.9 8.3 79.2 8.1 118-.5 1.9-.4 1.1-3.3-.8-2.9-38.3 8.5-78.1 8.6-116.4.5-1.9-.4-2.7 2.5-.8 2.9z"/><path d="m1244.3 918.9c-5.2-11.7-.5-26 3.4-37.5 4-11.9 9.7-23.2 16.7-33.6-.8.1-1.6.2-2.4.3 2.3 2.6 4.8 4.4 7.9 5.9 1.2.5 2.5-.3 2.2-1.7-1.2-5.4-3.3-10.7-.9-16.1 1.7-3.8 4.1-7.6 6.1-11.2-.7.2-1.4.4-2.1.5 2.1 1.3 4.2 2.5 6.3 3.8 1.4.9 2.6-.8 2.1-2.1-2.1-4.6-3.5-9.2-.6-13.8 1.7-2.8 3.9-5.3 5.8-7.9 4.2-5.6 8.6-11.2 13-16.7 8.4-10.5 17.1-20.7 26.1-30.7-.8-.1-1.6-.2-2.4-.3 12.8 16.8 20.9 36.9 23.1 57.9 1.1 10.1.8 20.5-1 30.5-.9 5.1-2.2 10.1-3.8 15-.3 1-.7 2-1 2.9-1.1 2.8-2.9 4-5.8 4.6-2 .4-3.1.1-4.8 1.4-.8.6-1 1.6-.3 2.4 2.2 2.3 3.1 2.7 2.3 5.8-.5 2-1.7 4.1-2.6 6.1-1.8 4-3.8 7.9-5.9 11.7-4.3 7.8-9.2 15.2-14.7 22.2-1.2 1.5.9 3.6 2.1 2.1 10.6-13.6 19-28.5 25.3-44.5.2-.5 0-1.1-.4-1.5-1.3-1.3-2.6-2.7-4-4-.1.8-.2 1.6-.3 2.4 2.3-1.6 4.9-.5 7.3-1.5 1.9-.7 2.9-2.1 3.7-3.9 2.2-4.7 3.6-10.1 4.8-15.1 2.5-11 3.3-22.3 2.5-33.5-1.7-22.6-10-44.5-23.8-62.5-.5-.7-1.6-1.1-2.4-.3-11.1 12.3-21.8 25-32 38-4.6 5.8-9.5 11.6-13.5 17.9-3.6 5.7-1.9 11.1.6 16.9.7-.7 1.4-1.4 2.1-2.1-2.1-1.3-4.2-2.5-6.3-3.8-.7-.4-1.7-.2-2.1.5-2.5 4.6-6.4 9.7-7.8 14.8-1.2 4.5 1.3 10.4 2.3 14.8.7-.6 1.5-1.1 2.2-1.7-2.9-1.3-5.2-3-7.3-5.4-.7-.8-1.9-.5-2.4.3-7.8 11.6-13.9 24.3-18.1 37.7-3.6 11.6-7.1 24.8-2 36.4 1 1.8 3.6.3 2.8-1.4z"/><path d="m1325.7 780.8c-4 45.3-35 81.6-47.9 124.2-.6 1.9 2.3 2.6 2.9.8 12.9-42.9 44-79.3 48-125 .2-2-2.9-1.9-3 0z"/><path d="m1287.9 804.9c3.2 16.5 6.9 32.8 11.1 49 .5 1.9 3.4 1.1 2.9-.8-4.2-16.2-7.9-32.6-11.1-49-.3-1.9-3.2-1.1-2.9.8z"/><path d="m1321.7 815.5c8.7-6.3 16.2-13.8 22.7-22.5 1.2-1.5-1.4-3-2.6-1.5-6.1 8.2-13.3 15.4-21.6 21.4-1.5 1.2 0 3.8 1.5 2.6z"/><path d="m1312.4 772.7c2.7 8.6 4.3 19.1 10.9 25.6 1.4 1.4 3.5-.8 2.1-2.1-6.1-6.1-7.7-16.4-10.2-24.3-.5-1.8-3.4-1-2.8.8z"/><path d="m1238.3 918.1c-6.1-4.8-9.8-11.5-12.9-18.5-3.5-8.2-6.5-16.6-9.2-25.1-5.1-16.3-8.8-33.1-11-50-4.5-35.4-.9-71.2-5.2-106.7-.9.3-1.9.5-2.8.8 11.2 25.2 37.4 40.3 59.2 55.3-.2-.7-.4-1.4-.5-2.1-3 4.3-6 8.6-9 12.9-.7 1 .2 2.3 1.3 2.3 3.9 0 7.3-.5 11-1.8-.6-.2-1.1-.5-1.7-.7 3.7 5.7 7.4 11.4 11.1 17.1.1-.6.2-1.2.2-1.8-1.8 1.7-3.3 3.6-4.8 5.7-.5.7 0 2.1.9 2.2 8.2 1.2 11.1 9 13.2 16 .6 1.8 3.5 1.1 2.9-.8-2.5-7.9-6.1-16.8-15.3-18.1.3.7.6 1.5.9 2.2 1.3-2 2.6-3.4 4.3-5 .5-.4.6-1.3.2-1.8-3.7-5.7-7.4-11.4-11.1-17.1-.3-.5-1-.9-1.7-.7-3.4 1.1-6.7 1.7-10.2 1.6.4.8.9 1.5 1.3 2.3 3-4.3 6-8.6 9-12.9.5-.7.1-1.6-.5-2.1-21.4-14.7-47.1-29.4-58.1-54.2-.6-1.3-3-.7-2.8.8 4.4 36.8.5 74 5.7 110.7 2.5 17.7 6.6 35.1 12.3 52 4.6 13.7 9.4 30.4 21.1 39.7 1.6 1.1 3.7-1 2.2-2.2z"/><path d="m1197.8 720.8c8.1 22.4 14.9 46 25.8 67.3 5.4 10.5 11.3 20.8 16.4 31.5 5.5 11.6 10.4 23.4 15.4 35.1.7 1.8 3.3.2 2.6-1.5-4.7-11.2-9.5-22.4-14.6-33.4-5-10.8-10.8-21.1-16.4-31.6-11.2-21.4-18.1-45.4-26.4-68.1-.6-1.9-3.5-1.1-2.8.7z"/><path d="m1201.6 796.8c10.8 1.3 22.6 1.9 30.8 10 1.4 1.4 3.5-.8 2.1-2.1-8.8-8.6-21.3-9.4-32.9-10.8-1.9-.3-1.9 2.7 0 2.9z"/><path d="m1230.5 756.3c-1.8 6.5-3 13.2-3.5 20-.4 5.8-1.1 12.6.9 18.2.6 1.8 3.5 1 2.9-.8-1.9-5.3-1.2-11.9-.8-17.5.5-6.5 1.7-12.9 3.4-19.2.5-1.8-2.4-2.6-2.9-.7z"/><path d="m1208.4 851.3c7.8.2 15.3.3 22.9 2.4 7.5 2.1 14.9 4.3 22.4 6.5 1.9.5 2.7-2.4.8-2.9-8-2.3-15.9-4.8-24-6.9-7.3-1.9-14.6-1.8-22.1-2-1.9-.2-1.9 2.8 0 2.9z"/><path d="m1317.8 915.3c6.7-.9 13.3-.9 20 0-.3-.7-.6-1.5-.9-2.2-.6.9-6.6 1-7.8 1.1-2.7.4-5.5.8-8.2 1.4-.4.1-3.1.4-3.2.7.2-.5 4.2-.4 4.8-.4 2.9 0 5.8.3 8.7.5 0-1 0-2 0-3-2.5-.1-4.7.2-7.2.9-1.6.4-1.3 2.9.4 2.9 3.9 0 7.4-.8 11.2-1.8 1.9-.5 1.1-3.4-.8-2.9-3.4.9-6.8 1.7-10.4 1.7.1 1 .3 2 .4 2.9 2.1-.6 4.2-.8 6.4-.8 1.9 0 1.9-2.9 0-3-4.4-.2-10.8-1.8-14.8.7-1.6 1-3.9 3.6-1.8 5.2.9.7 1.9.3 3 .2 3-.6 5.9-1.3 8.9-1.8 3.5-.6 10.5.3 12.9-3 .5-.7 0-2.1-.9-2.2-7-1-13.8-1-20.8-.1-1.8.2-1.8 3.2.1 3z"/><path d="m1221.9 917.2c1.4-.4 2.8-.7 4.2-.8.7 0 1.3-.1 2 0 .3 0 1.7-.1 1.8 0-.1-.5-.3-1-.4-1.5 0 .1-.1.2-.1.2.6-.3 1.2-.7 1.8-1-.1 0-.2 0-.2 0l1 1c0-.1 0-.2-.1-.2-.5-1.9-3.3-1.1-2.9.8 0 .1 0 .2.1.2.1.5.6.9 1 1h.2c.8.2 1.5-.2 1.8-1 0-.1.1-.2.1-.2.2-.5 0-1.1-.4-1.5-1.1-1.1-3.5-.9-4.9-.9-2 0-4.1.4-6 .9-1.6.6-.8 3.5 1 3z"/><path d="m1224.2 937.3c36.5 6.3 74.4 9.3 110.4-1.5 1.8-.6 1.1-3.4-.8-2.9-35.4 10.6-72.8 7.7-108.8 1.5-1.9-.3-2.7 2.6-.8 2.9z"/><path d="m1349.9 978.4h192.4c1.9 0 1.9-3 0-3-64.1 0-128.3 0-192.4 0-2 0-2 3 0 3z"/><path d="m1301.4 1042.7h181.3c1.9 0 1.9-3 0-3-60.4 0-120.9 0-181.3 0-1.9 0-1.9 3 0 3z"/><path d="m1328.9 1042.4c-7.2 6-14.4 11.9-21.5 17.9-1.5 1.2.6 3.3 2.1 2.1 7.2-6 14.4-11.9 21.5-17.9 1.5-1.2-.7-3.4-2.1-2.1z"/><path d="m1308.3 1063.5c1.9 0 1.9-3 0-3s-1.9 3 0 3z"/><path d="m1338.8 1060.5c-60.9 0-121.8 0-182.7 0-1.9 0-1.9 3 0 3h182.7c1.9 0 1.9-3 0-3z"/><path d="m1155.8 1091.5c10.8-9 21.9-17.6 33.3-25.9 1.5-1.1.1-3.7-1.5-2.6-11.6 8.4-22.9 17.2-33.9 26.3-1.5 1.3.6 3.4 2.1 2.2z"/><path d="m245.4 1036.9h211.8 60c1.9 0 1.9-3 0-3-70.6 0-141.2 0-211.8 0-20 0-40 0-60 0-1.9 0-1.9 3 0 3z"/><path d="m282.3 1063c9.5-8.1 19.1-16.2 28.6-24.3 1.5-1.3-.7-3.4-2.1-2.1-9.5 8.1-19.1 16.2-28.6 24.3-1.5 1.2.7 3.4 2.1 2.1z"/><path d="m247.9 1065.9h196.8c1.9 0 1.9-3 0-3-65.6 0-131.2 0-196.8 0-1.9 0-1.9 3 0 3z"/><path d="m421.8 1065.3c-7.5 8.4-15.2 16.6-23 24.8-1.3 1.4.8 3.5 2.1 2.1 7.8-8.2 15.4-16.4 23-24.8 1.4-1.4-.8-3.5-2.1-2.1z"/><path d="m370.6 1094.9h173c1.9 0 1.9-3 0-3-57.7 0-115.3 0-173 0-1.9 0-1.9 3 0 3z"/><path d="m329.7 986.6h73.3c1.9 0 1.9-3 0-3-24.4 0-48.8 0-73.3 0-1.9 0-1.9 3 0 3z"/><path d="m421.5 996.4h22.6c1.9 0 1.9-3 0-3-7.5 0-15.1 0-22.6 0-2 0-2 3 0 3z"/><path d="m367.2 461.7v49c0 1.9 3 1.9 3 0 0-16.3 0-32.7 0-49 0-1.9-3-1.9-3 0z"/><path d="m316.9 513.1h120.6c1.9 0 1.9-3 0-3-40.2 0-80.4 0-120.6 0-1.9 0-1.9 3 0 3z"/><path d="m401.1 514.5v37.7c0 1.9 3 1.9 3 0 0-12.6 0-25.1 0-37.7 0-2-3-2-3 0z"/><path d="m367.8 557.4h96.1c1.9 0 1.9-3 0-3-32 0-64.1 0-96.1 0-2 0-2 3 0 3z"/><path d="m1174.8 426.6v11.9c0 1.9 3 1.9 3 0 0-4 0-7.9 0-11.9 0-1.9-3-1.9-3 0z"/><path d="m1177.2 429h206.4c1.9 0 1.9-3 0-3-68.8 0-137.6 0-206.4 0-1.9 0-1.9 3 0 3z"/><path d="m1179 440h204.5c1.9 0 1.9-3 0-3-68.2 0-136.4 0-204.5 0-1.9 0-1.9 3 0 3z"/><path d="m1383.1 426.6c-.4 4.1-.2 8.2.5 12.3.3 1.9 3.2 1.1 2.9-.8-.7-3.8-.8-7.7-.4-11.5.2-1.9-2.8-1.9-3 0z"/><path d="m1191.3 426.7c0-27.9 0-55.8 0-83.7 0-1.9-3-1.9-3 0v83.7c0 2 3 2 3 0z"/><path d="m1191.3 343.5c8.5-3.4 17.5-2.9 25.4 1.8 1.7 1 3.2-1.6 1.5-2.6-8.5-5-18.6-5.8-27.7-2.1-1.8.7-1 3.6.8 2.9z"/><path d="m1216.2 344.6v80.5c0 1.9 3 1.9 3 0 0-26.8 0-53.7 0-80.5 0-1.9-3-1.9-3 0z"/><path d="m1219.6 367c6.1-2.5 12.5-2.1 18.2 1.4 1.7 1 3.2-1.6 1.5-2.6-6.3-3.8-13.7-4.5-20.5-1.7-1.8.7-1 3.6.8 2.9z"/><path d="m1237.2 368.3v56.3c0 1.9 3 1.9 3 0 0-18.8 0-37.5 0-56.3 0-1.9-3-1.9-3 0z"/><path d="m1191.7 366.5c8.5-1.9 16.9-1.3 25.1 1.6 1.8.6 2.6-2.3.8-2.9-8.7-3.1-17.7-3.5-26.7-1.6-1.8.4-1 3.3.8 2.9z"/><path d="m1217.5 401.2c6.4-1.7 12.8-1.9 19.3-.5 1.9.4 2.7-2.5.8-2.9-7-1.5-13.9-1.4-20.9.5-1.8.5-1.1 3.4.8 2.9z"/><path d="m1275 425.7c0-5.6 0-11.2 0-16.8 0-1.9-3-1.9-3 0v16.8c0 1.9 3 1.9 3 0z"/><path d="m1273.5 409.8h97.4c1.9 0 1.9-3 0-3-32.5 0-64.9 0-97.4 0-2 0-2 3 0 3z"/><path d="m1371.9 411.4c1.9 0 1.9-3 0-3-2 0-2 3 0 3z"/><path d="m1370.4 409.9v15.3c0 1.9 3 1.9 3 0 0-5.1 0-10.2 0-15.3 0-1.9-3-1.9-3 0z"/><path d="m1293.9 407.8c0-5.3 0-10.5 0-15.8 0-1.9-3-1.9-3 0v15.8c0 1.9 3 1.9 3 0z"/><path d="m1292.4 393h95.8c1.9 0 1.9-3 0-3-31.9 0-63.8 0-95.8 0-1.9 0-1.9 3 0 3z"/><path d="m1387.2 391.5v13.2c0 1.9 3 1.9 3 0 0-4.4 0-8.8 0-13.2 0-2-3-2-3 0z"/><path d="m1369.8 410.3h17.4c1.9 0 1.9-3 0-3-5.8 0-11.6 0-17.4 0-2 0-2 3 0 3z"/><path d="m1387 404.8c-.2 1.1-.2 2.1.1 3.1.2.8 1.1 1.3 1.8 1 .8-.2 1.3-1.1 1-1.8-.1-.5-.2-1.1-.1-1.5.1-.8-.2-1.7-1-1.8-.7-.2-1.7.2-1.8 1z"/><path d="m1315.2 392.2c1.3 5.1 1.6 10.3.9 15.6-.2 1.9 2.8 1.9 3 0 .7-5.5.3-11-1-16.4-.5-1.8-3.4-1-2.9.8z"/><path d="m1337.8 409.6c.7 5 .3 9.9-.9 14.7-.5 1.9 2.4 2.7 2.9.8 1.4-5.4 1.7-10.8.9-16.3-.2-1.9-3.1-1.1-2.9.8z"/><path d="m1318.2 531.3v23.6c0 1.9 3 1.9 3 0 0-7.9 0-15.7 0-23.6 0-2-3-2-3 0z"/><path d="m1295 555.3h60c1.9 0 1.9-3 0-3-20 0-40 0-60 0-1.9 0-1.9 3 0 3z"/><path d="m1260.9 218.9v54.1c0 1.9 3 1.9 3 0 0-18 0-36.1 0-54.1 0-1.9-3-1.9-3 0z"/><path d="m1264.7 218.8h68.3c1.9 0 1.9-3 0-3-22.8 0-45.5 0-68.3 0-1.9 0-1.9 3 0 3z"/><path d="m1333.1 218.4v52.1c0 1.9 3 1.9 3 0 0-17.4 0-34.8 0-52.1 0-1.9-3-1.9-3 0z"/><path d="m1262 274.7h72.6c1.9 0 1.9-3 0-3-24.2 0-48.4 0-72.6 0-1.9 0-1.9 3 0 3z"/><path d="m1267.6 225.1v41c0 1.9 3 1.9 3 0 0-13.7 0-27.3 0-41 0-1.9-3-1.9-3 0z"/><path d="m1269.8 226.3h56.2c1.9 0 1.9-3 0-3-18.7 0-37.5 0-56.2 0-1.9 0-1.9 3 0 3z"/><path d="m1324.9 225.1v38c0 1.9 3 1.9 3 0 0-12.7 0-25.3 0-38 0-1.9-3-1.9-3 0z"/><path d="m1269.8 267.6h55.9c1.9 0 1.9-3 0-3-18.6 0-37.2 0-55.9 0-1.9 0-1.9 3 0 3z"/><path d="m1305.2 249.6c-7.9-6 3.9-18.5 9.4-11 5.1 6.8-3.2 15-10.3 11.2-1.7-.9-3.2 1.7-1.5 2.6 4.6 2.5 10.7 1.8 14-2.5 3.4-4.3 3-11.1-1.3-14.7-4.5-3.7-10.9-1.2-14 3-3.3 4.6-2.3 10.6 2.2 14 1.6 1.1 3-1.5 1.5-2.6z"/><path d="m1295.7 264.4c-.4-7.9 9.3-10.9 15.4-10.9 7.5 0 9.9 6.7 13 12.4.9 1.7 3.5.2 2.6-1.5-2.1-3.8-4.1-8.8-7.6-11.6-3.2-2.5-7.2-2.4-11-2-7 .8-15.9 5.1-15.4 13.6.1 1.9 3.1 1.9 3 0z"/><path d="m1271.1 257.2c2.2-4.1 10.3-2.5 13.3-.9 3.1 1.7 4.9 4.5 5.7 7.9.4 1.9 3.3 1.1 2.9-.8-1.2-5.2-4.8-9.3-10-11-4.4-1.4-11.9-1.5-14.4 3.2-1 1.8 1.6 3.3 2.5 1.6z"/><path d="m1276.9 249.8c-3.3-.1-2.5-5-1.1-6.7 1.8-2.2 5.4-2.5 7.5-.4 1.7 1.6 2.2 4.6.8 6.5-1 1.4-2.5 1.7-4.1 1.7-.6 0-3.1.1-3.5-.4-1.1-1.6-3.7-.1-2.6 1.5 1.2 1.8 3.7 1.9 5.7 1.9 2.4.1 4.7-.5 6.4-2.3 3.2-3.5 2.1-9.4-1.7-12-4.1-2.7-9.8-1.2-11.9 3.2-1.8 3.9-.5 9.8 4.5 9.9 2 .2 2-2.8 0-2.9z"/><path d="m664.9 484.7c4.7 3.8 10.5 2.2 14.9-1.5 6.2-5.1 9.3-13.8 10.5-21.5 3.1-19.6-4.8-38.2-7.9-57.2-5.6-35.3 9.8-73.1 38.4-94.3 13.9-10.4 36.8-21.5 31.4-42.8-.5-1.9-3.4-1.1-2.9.8 5.1 20.3-18.5 30.6-31.4 40.4-11.6 8.9-21 20.4-27.7 33.3-6.6 12.5-10.6 26.4-11.7 40.5-1.3 17.1 3.2 33 6.9 49.5 2.2 10 3.6 20.5 1.7 30.7-.9 4.7-2.5 9.3-5 13.4-2.8 4.4-9.5 11.2-15.1 6.7-1.4-1.3-3.6.8-2.1 2z"/><path d="m751.1 266.2c-11.3.5-21.2-8.3-20.6-19.9.6-12.1 14.9-23.3 27-20.1 10.8 2.9 19.1 14.8 16.4 25.9s-15.2 13.5-24.8 15.1c-1.9.3-1.1 3.2.8 2.9 12.4-2 26.8-6.4 27.6-21.4.6-12.2-10.3-25.4-22.8-25.9-13.2-.6-26.5 10.2-27.2 23.6-.6 13.2 10.7 23.4 23.6 22.9 1.9-.2 1.9-3.2 0-3.1z"/><path d="m736.3 258.4c4.8-12.1 30.4-14.1 33.4.3.4 1.9 3.3 1.1 2.9-.8-3.7-17.6-33.4-15-39.2-.3-.7 1.8 2.2 2.5 2.9.8z"/><path d="m751.3 244.9c-2.1-1.5-2.9-4.4-1.5-6.6 1.6-2.7 5-3 7.6-1.6 2 1.1 2.4 3.6 1.2 5.5-1.5 2.3-4.7 2.6-7.2 2-1.9-.4-2.7 2.5-.8 2.9 4 .9 8.8 0 10.8-3.9 1.8-3.5.5-7.7-3.1-9.4-4-1.8-8.8-1-11.1 2.9-2.3 3.7-.8 8.3 2.6 10.7 1.6 1.3 3.1-1.3 1.5-2.5z"/><path d="m793.7 214.1c10.5-27.8 40.7-42 68.8-43.9 18.6-1.3 37.2 1.6 55.4 5.1 17.2 3.4 35.1 8.8 52.7 8.2 14.5-.5 29.4-6.5 36.2-20 .9-1.7-1.7-3.2-2.6-1.5-7.9 15.6-26.1 19.6-42.2 18.3-18.8-1.5-37.3-7.1-55.8-10.2-30-5-62-5.7-88.7 11.2-12.1 7.7-21.7 18.5-26.8 32-.6 1.8 2.3 2.6 3 .8z"/><path d="m1018.9 161.8h79.3c1.9 0 1.9-3 0-3-26.4 0-52.9 0-79.3 0-2 0-2 3 0 3z"/><path d="m1017.8 158.6c-4.7-4.6.4-12.4 4.1-15.9 4.5-4.4 10.7-6.1 16.7-3.7.5.2 1.5-.1 1.7-.7 3.6-8.4 12.1-14.5 21.4-14.1 9.7.4 17.9 7.7 20.3 16.9.2.9 1.4 1.4 2.2.9 4.4-2.7 8.9.5 10.7 4.6 1.6 3.8 1.2 8.1.8 12.2-.2 1.9 2.8 1.9 3 0 .6-6 1-13.1-3.8-17.7-3.4-3.2-8.1-4.2-12.1-1.7.7.3 1.5.6 2.2.9-2.7-10-11.3-18-21.8-19-10.8-1.1-21.2 5.6-25.4 15.5.6-.2 1.1-.5 1.7-.7-8-3.2-16.4.2-21.6 6.8-3.9 4.9-7.3 12.8-2 17.9 1.2 1.3 3.3-.8 1.9-2.2z"/><path d="m1074.7 173.3c12.3-1.4 19.5 11.5 21.4 21.9 2 10.7.1 21.4-1 32.1-1.7 16.1-.6 35.5 14.7 44.9 1.6 1 3.2-1.6 1.5-2.6-20.9-12.8-12.2-41.3-11.4-60.9.6-14.9-5.3-40.6-25.2-38.4-1.9.2-1.9 3.2 0 3z"/><path d="m1126.4 255.3c-9 22.7-17.9 45.4-26.9 68-.7 1.8 2.2 2.6 2.9.8 9-22.7 17.9-45.4 26.9-68 .7-1.8-2.2-2.5-2.9-.8z"/><path d="m1127.8 257.2c15.6-.8 31.1-.4 46.6 1.4-.5-.6-1-1.3-1.4-1.9-7.4 23.7-13.4 47.7-18.2 72-.4 1.9 2.5 2.7 2.9.8 4.8-24.3 10.9-48.3 18.2-72 .3-1-.5-1.8-1.4-1.9-15.5-1.8-31-2.2-46.6-1.4-2 .1-2 3.1-.1 3z"/><path d="m1100.2 326.2c9.2.4 18.3.9 27.5 1.5 8.9.5 18.4.3 26.8 3.7 1.8.7 2.6-2.2.8-2.9-8-3.3-17.1-3.1-25.6-3.6-9.8-.6-19.6-1.1-29.5-1.6-1.9-.2-1.9 2.8 0 2.9z"/><path d="m1129.2 267.2c9.6.2 19.2.9 28.7 2.2 1.9.3 2.7-2.6.8-2.9-9.8-1.4-19.6-2.2-29.5-2.4-2 0-2 3 0 3.1z"/><path d="m1126.3 274c5.4-.2 10.8-.1 16.2.4 1.9.2 1.9-2.8 0-3-5.4-.5-10.8-.7-16.2-.4-1.9.1-1.9 3.1 0 3z"/><path d="m1119.7 287.5c11.5-.7 22.4-1.7 33.7 1.1 1.9.5 2.7-2.4.8-2.9-11.6-2.8-22.7-1.9-34.5-1.2-2 .1-2 3.1 0 3z"/><path d="m1120.2 296.3c6.6-.5 13.2-.5 19.8.1 1.9.2 1.9-2.8 0-3-6.6-.6-13.2-.6-19.8-.1-1.9.2-2 3.2 0 3z"/><path d="m1115 307.9c9-.6 17.8-.3 26.7.9 1.9.3 1.9-2.7 0-3-8.9-1.2-17.8-1.5-26.7-.9-1.9.1-1.9 3.1 0 3z"/><path d="m617.4 173.7c4 5.4 9.8 7.6 15.7 10.3 7 3.2 13.4 7.5 18.6 13.2 11.8 12.7 15.7 29.8 16 46.7.7 31.7-10 64.9 4.4 94.9.8 1.7 3.4.2 2.6-1.5-15.1-31.6-1.7-67-4.3-100.2-1.1-14.4-5.2-28.5-14.5-39.7-4.4-5.3-9.8-9.9-15.8-13.3-6.7-3.8-15.4-5.5-20.1-11.9-1.1-1.5-3.7 0-2.6 1.5z"/><path d="m583.2 131.4c-2.6-3.3-2.4-5.6.6-6.9 1.3-.7 2.6-1.2 4.1-1.5 1.9-.4 4-.5 6-.4 6 .3 12.1 1.9 11.8 9.2-.3 8.6-1.9 17.1-4 25.4-2.2 8.5-4.9 16.8-7.8 25.1-.6 1.8-1.1 3.9-2 5.6-1.8 3.1-4.6 3-7.6 3-3.7 0-8.4.5-12-.5-4-1.1-4.9-5.1-1-7.7 1.8-1.2 4.3-1.4 6.4-1.4 2.7 0 5.1.6 7.4-1.2 4.4-3.4 5.1-12.6 6.1-17.5 1.5-7.1 4-15.8 3.5-23-.4-5.5-5.8-5.7-9.7-8-1.7-1-3.2 1.6-1.5 2.6 3.1 1.8 7.6 2 8.2 6.1.7 4.8-1.3 11.3-2.2 16.1-.9 4.6-1.9 9.2-3.1 13.7-.9 3.4-1.3 7.5-5.8 8.4-1.8.4-4-.2-5.9.1-4.8.7-9.5 4.1-8.8 9.5.9 6.8 9 5.6 14 5.8 6.2.2 12.4 1.1 15.2-5.5 3.5-8.2 6-17.2 8.4-25.7 2.5-8.8 4.4-17.9 5.1-27 .6-7.1.9-12.8-7-14.7-6.9-1.7-16.4-2.5-21.8 3.1-3.6 3.7-2.7 11 3.5 10.5 1.8-.4 1.8-3.4-.1-3.2z"/><path d="m571.1 142.1c-.1-.1-.2-.2-.3-.3-.4-.4-1-.5-1.5-.4-2.9 1-4 5.7-4.8 8.3-1.4 4.8-1.7 9.7-1 14.7.2 1.9 3.2 1.9 3 0-.4-3.5-.5-6.9.1-10.4.3-1.8 3.4-8.8 2.3-9.8 1.4 1.4 3.5-.7 2.2-2.1z"/><path d="m561 131.1c-9.2 11.7-15.1 25.8-11.2 40.8.5 1.9 3.4 1.1 2.9-.8-3.6-13.8 2-27.1 10.4-37.9 1.2-1.5-.9-3.6-2.1-2.1z"/><path d="m548.4 117.6c-15.3 20.1-22.5 45.5-19.9 70.7.2 1.9 3.2 1.9 3 0-2.5-24.7 4.4-49.4 19.5-69.2 1.1-1.5-1.5-3-2.6-1.5z"/><path d="m527.1 219.8c-7.7 3.7-14.9 8.8-20.6 15.2-5.8 6.6-7.6 13.7-8.5 22.3-2 19.7-9.3 41.3-29.1 49.6-1.8.7-1 3.6.8 2.9 15.8-6.6 25-21.6 28.9-37.8 2.3-9.7 1.2-21.2 6.3-29.9 5.2-8.9 14.6-15.4 23.7-19.8 1.8-.7.3-3.3-1.5-2.5z"/><path d="m426.6 360c-6.6.2-14.1-2.6-16.5-9.4-2.8-8 3.2-15.8 9.6-19.9 12.4-8 29.1-11.1 43.5-11.3 7.3-.1 15.6 0 22 3.9 8.2 5 9.6 14.4 3.2 21.5-9.7 10.8-26.4 11.9-39.8 12.9-1.9.1-1.9 3.1 0 3 13.4-1 28.4-2.2 39.2-11.2 9.9-8.2 10.6-21.8-1-28.9-12-7.3-30.3-4.9-43.3-2.1-12.5 2.7-29.6 7.6-35.2 20.5-5.8 13.2 5.3 24.2 18.5 23.8 1.8.1 1.8-2.9-.2-2.8z"/><path d="m426.1 361.2c-2.5 4-4.9 8-7.4 11.9-.8 1.3.8 2.7 2.1 2.1 6.1-3.3 12.7-5.4 18.9-8.3 3.4-1.5 6.7-3.3 9.9-5.3 1.1-.7 2.4-1.1 2.7-2.5.2-.7-.2-1.7-1-1.8-.1 0-.2 0-.3-.1-.7-.1-1.7.2-1.8 1v.2c-.4 1.9 2.5 2.7 2.9.8 0-.1 0-.1 0-.2-.6.3-1.2.7-1.8 1 .1 0 .2 0 .3.1-.3-.6-.7-1.2-1-1.8-.3 1-5.9 3.3-7.1 4-3 1.6-6.1 2.9-9.3 4.2-4.7 1.9-9.3 3.7-13.7 6.1l2.1 2.1c2.5-4 4.9-8 7.4-11.9.7-1.7-1.9-3.2-2.9-1.6z"/><path d="m429.4 343.9c-.1-.2-.1-.6.2-.6.8 0-.1 1-.2 1.1-.5.3-2.2.7-2.1-.3.1-1.2 2.4-2.5 2.8-.7.1.5-.3 1.1-.8 1.2-.3.1-.5.1-.7-.1-.1-.1-.3-.2-.1-.2 1.9.1 1.9-2.9 0-3-2-.2-3.5 1.9-3 3.8s2.7 2.9 4.5 2.4 3.2-2.1 3.2-4-1.5-3.5-3.2-3.9c-3.7-.9-7.6 4.5-4.4 7.2 2.6 2.2 7.8.2 7.5-3.5-.2-2-2.4-3.6-4.4-2.9s-2.8 3.2-1.8 5c.8 1.7 3.4.2 2.5-1.5z"/><path d="m451.5 341.2c-.1-.6-.4-1.4.2-1.9.3-.3.8-.3 1.2-.3 1 .2.8 1.3.1 1.8-.4.3-.8.3-1.1-.1s-.2-.5.1-.7c.2-.1-.4 0 .1-.1 1.2-.2-.8 1.2-.5.2-.6 1.9 2.3 2.6 2.9.8.5-1.8-1.2-3.6-3-3.3-2.1.4-2.6 2.9-1.3 4.4 1.2 1.4 3.4 1.1 4.3-.5s.3-3.7-1.5-4.3-3.8.5-4.2 2.3c-.5 2 .9 4 2.9 4.5 3.6.8 6.6-4.1 4-6.8-1.3-1.3-3.4-1.4-5-.7-2.2 1.1-2.3 3.4-1.9 5.5.1 1.9 3 1.1 2.7-.8z"/><path d="m473.7 334.5c.4 0 .8.1 1.3.1v-.1c.1-.1.1-.3.2-.4.1-.2.4-.4.6-.5.5-.2 1-.2 1.3.3.4.8-.3 2.3-1.3 1.7-.6-.4-.7-1.4.2-1.2.2 0 .3.1.4.2 0 0 0 .2 0 0s0 .1-.1.1c-.3.2-.4.4-.7.2-.7-.5-1.7-.1-2.1.5-.4.8-.1 1.6.5 2.1 2.9 2.1 6.8-2.1 4.5-4.9-2.1-2.5-6.6-.9-6.4 2.4.1 1.7 1.4 3.2 3 3.6s3.3-.4 4.2-1.8c2-3.1-.8-7.4-4.5-6.2-1.7.6-3.2 2.3-3 4.2.2 2.1 3.2 3.2 4.3 1.1 1-1.6-1.5-3.1-2.4-1.4z"/><path d="m534.1 247.3c12.3-6.8 23-15.8 31.9-26.7 1.2-1.5-.9-3.6-2.1-2.1-8.7 10.7-19.2 19.5-31.3 26.2-1.7.9-.2 3.5 1.5 2.6z"/><path d="m683.7 249.9c-2.2 12.6-3.1 25.3-2.5 38.1.1 1.9 3.1 1.9 3 0-.6-12.5.2-25 2.4-37.3.3-1.9-2.6-2.7-2.9-.8z"/><path d="m668.4 542.2c0-15.3 7.2-29.8 19.5-39 1.5-1.1 0-3.7-1.5-2.6-13.2 9.8-20.9 25.1-20.9 41.6-.1 1.9 2.9 1.9 2.9 0z"/></g><path d="m835.9 946c1.6 14.4 4.1 30.2 8.1 47.3 5.4 23.1 12.3 43.3 19.2 60.3-1.9 1.7-7.6 6.2-16 6.8-5.3.4-9.5-.9-11.9-1.8-3.6-12.5-7.1-25.5-10.3-39-6.6-27.8-11.4-54.3-14.9-79 8.7 1.8 17.3 3.6 25.8 5.4z" fill="#191919"/><path d="m1060.4 936.6c-1.3 14.3-3.5 30.2-7.2 47.3-5.2 24.2-12.1 45.2-19.1 62.9 1 .9 6.7 6.3 15.5 5.9 7.6-.3 12.5-4.8 13.7-5.9 2.3-12.1 4.5-24.3 6.7-36.5 4.8-26.7 9.1-53 13.2-79-7.6 1.7-15.2 3.5-22.8 5.3z" fill="#191919"/><path d="m881.6 896.7c2.3 15.3 5 31.1 8.1 47.3 4.5 23.5 9.6 45.9 15 67.1-2.3 1.4-6.9 3.7-13.2 4.1-5.3.3-9.5-.9-11.9-1.8-3-14.2-5.9-28.6-8.8-43-5.3-26.7-10.2-53-14.9-79 8.6 1.7 17.1 3.5 25.7 5.3z" fill="#191919"/><path d="m1022.7 893.7c-2.7 15.1-5.1 30.9-7.2 47.3-2.9 22.6-4.9 44.2-6.1 64.8 1.7 1.1 5.7 3.4 11.4 3.7 6.1.2 10.6-2.2 12.3-3.2-1-11.8-1.4-24.9-.8-38.9 1.2-31.1 6.9-57.9 13.2-79-7.6 1.7-15.2 3.5-22.8 5.3z" fill="#191919"/><path d="m1200.4 559.1c17.5 31.2 4 65.7-28.8 151.4-15.8 41.2-44.7 116.9-85.5 224.8-40.1 14.6-106.5 32.6-188.6 26.9-47.7-3.3-87.7-13.6-118-24.2-4.5-8.1-20.1-38.4-8.4-67.8 6.5-16.3 19.6-28 47.4-41.8 27.4-13.6 75.7-32.7 145.9-36.2-27.5-136.9 19.6-249.1 92.9-275 48.1-16.9 119-1 143.1 41.9z" fill="#fff" stroke="#191919" stroke-miterlimit="10" stroke-width="2"/><path d="m1194 570.4c-29 36.7-35.6 86-46.7 130.1-11.9 47.2-25.6 94.3-46.1 138.6-11.3 24.3-24.6 47.7-40.5 69.3-1.1 1.6 1.5 3.1 2.6 1.5 27.9-38 47.6-81.1 62.8-125.5 15.4-45.2 25.6-91.8 37.6-137.9 6.8-26.2 15.5-52.4 32.5-73.9 1.1-1.6-1-3.7-2.2-2.2z" fill="#191919"/><path d="m780.1 916.3c66.7 24.5 139.4 31.7 209.6 20.8 20.1-3.1 40-7.7 59.5-13.7 1.8-.6 1.1-3.5-.8-2.9-68 21-141 24.2-210.6 9.4-19.3-4.1-38.4-9.7-56.9-16.5-1.8-.7-2.6 2.2-.8 2.9z" fill="#191919"/><path d="m1014.9 837.7c16.8 5.5 31.1 16.6 40.7 31.6 1 1.6 3.6.1 2.6-1.5-10-15.6-24.9-27.2-42.5-33-1.9-.6-2.7 2.3-.8 2.9z" fill="#191919"/><path d="m714.1 967.2c8 12 16 24.1 23.9 36.1-51.2 46-57.8 59.1-54 62.3 7.6 6.3 62.1-21.7 67.7-24.6 20.3-10.4 35.6-20.5 45.8-27.7-3.6-9.8-8.4-20.8-15-32.4-8.7-15.3-18.3-28.2-27.4-38.7-13.7 8.2-27.4 16.6-41 25z" fill="#191919"/><path d="m1013.3 731.5c3.6 7.8 7.4 18.9 8 32.3.9 20.2-5.7 36.3-10.7 45.6-2.7 3.5-7.5 9.3-14.6 15.6 0 0-16.1 14.2-41.7 25.1-26.1 11.2-102 24.7-205.1 27.3 3 12.8 8.4 28.5 18 45.4 5.3 9.3 11.1 17.5 16.8 24.6-3.8 5-14.6 17.7-36.1 25.7-20.7 7.7-39.7 6.8-47.2 6.2-10.8-9.9-21.9-21.7-32.2-35.8-30.3-41.7-37.4-82-38.7-107.9 7.5-5.4 18.5-12.8 32.9-20.7 30-16.5 57.5-25.5 80.1-32.2 38.9-11.4 76.1-19.3 161.7-33.8 26.8-4.5 63.9-10.7 108.8-17.4z" fill="#fff" stroke="#191919" stroke-miterlimit="10" stroke-width="2"/><path d="m918.3 748.7c-2.9 19.1-11.1 43.9-36.5 59.3-24.7 15-45.4 8.9-94.9 20.9-35.6 8.6-82.7 20-95.8 45.3-13.7 26.6 12.2 64.1 57.5 94.9 3.8-.5 8.6-1.5 13.7-3.5 13.1-5.2 19.5-13.7 21.9-17.4-5.8-7-11.8-15.1-17.3-24.4-10.4-17.4-16-33.6-19.2-46.7 53-2.2 97.5-6.8 131.3-11.2 40.7-5.3 68.9-10.6 95.8-25.8 22.5-12.7 31.5-25.2 34.7-30 9.7-14.7 10.5-28.1 10.9-35.6 1-18.3-5-33.2-10-42.6-30.7 5.6-61.4 11.2-92.1 16.8z" fill="#6c6d6d" opacity=".19"/><path d="m1011.4 734c-2 18.6-9.1 48-37.4 71.2-17.4 14.3-36.1 20.7-109.5 40.5-32.4 8.7-71.6 19-116.2 30.2 56.7-.6 102.8-5.3 135.9-9.8 34.3-4.7 51.1-8.8 68.5-16.3 16.5-7.1 49.8-21.5 63.4-51.8 13.1-29.4-.1-55.8-4.7-64z" fill="#6c6d6d" opacity=".19"/><path d="m748.6 877.4c-.4 13.2.2 28.3 2.7 44.9 2.4 16.4 6.3 31.1 10.5 43.9 3.4-2 7.3-4.7 11.1-8 4.6-4 8-7.8 10.5-11.1-5.8-7.6-11.7-16.4-17.2-26.3-8.9-16-14.2-30.8-17.6-43.4z" fill="#6c6d6d" opacity=".22"/><path d="m744 1024.6c7.7 15.1 15.3 30.2 23 45.4-49.2 57.8-55.6 74.2-51.9 78.2 7.3 8 59.7-27.3 65.1-30.9 19.5-13.1 34.3-25.8 44.1-34.8-3.5-12.3-8.1-26.1-14.5-40.8-8.3-19.2-17.6-35.4-26.3-48.7-13.2 10.6-26.4 21.1-39.5 31.6z" fill="#191919"/><path d="m1031.6 728.4c3.5 9.9 7.1 23.7 7.7 40.6.9 25.4-5.5 45.6-10.3 57.3-2.6 4.4-7.2 11.7-14 19.7 0 0-15.4 17.9-40 31.6-25.1 14-98.1 31.1-197.1 34.3 2.9 16.1 8 35.8 17.3 57 5.1 11.7 10.7 22 16.2 30.9-3.6 6.3-14 22.2-34.7 32.3-19.9 9.7-38.1 8.6-45.4 7.7-10.4-12.4-21.1-27.3-30.9-45-29.2-52.4-36-103.1-37.2-135.6 7.2-6.7 17.8-16.1 31.6-26 28.9-20.7 55.2-32.1 77-40.5 37.3-14.3 73.2-24.2 155.5-42.5 25.4-5.7 61.2-13.4 104.3-21.8z" fill="#fff" stroke="#191919" stroke-miterlimit="10" stroke-width="2"/><path d="m940.3 750c-2.8 24-10.7 55.1-35.1 74.5-23.7 18.9-43.7 11.2-91.2 26.3-34.2 10.8-79.5 25.2-92.1 57-13.2 33.4 11.7 80.6 55.2 119.2 3.7-.6 8.3-1.9 13.2-4.4 12.6-6.5 18.7-17.2 21-21.9-5.6-8.8-11.4-19-16.7-30.7-10-21.9-15.4-42.2-18.4-58.7 51-2.8 93.7-8.5 126.3-14 39.2-6.6 66.2-13.3 92.1-32.4 21.6-16 30.3-31.7 33.3-37.7 9.3-18.5 10.1-35.3 10.5-44.7.9-23-4.8-41.7-9.6-53.5-29.5 6.9-59 13.9-88.5 21z" fill="#6c6d6d" opacity=".19"/><path d="m1029.7 731.5c-1.9 23.3-8.7 60.3-35.9 89.5-16.8 18-34.7 26-105.2 50.9-31.2 11-68.8 23.9-111.7 38 54.5-.8 98.9-6.6 130.7-12.3 33-5.9 49.2-11 65.8-20.4 15.9-9 47.8-27 61-65.2 12.5-37-.2-70.1-4.7-80.5z" fill="#6c6d6d" opacity=".19"/><path d="m777.2 911.8c-.4 16.6.2 35.6 2.6 56.4 2.4 20.7 6 39.1 10.1 55.1 3.3-2.6 7-5.9 10.7-10.1 4.4-5 7.7-9.8 10.1-13.9-5.6-9.6-11.3-20.6-16.5-33.1-8.6-20-13.8-38.7-17-54.4z" fill="#6c6d6d" opacity=".22"/><path d="m738.3 573c-1.9-.9-5.7-2.6-5.6-4.5.2-3.1 10.5-5.2 18.2-5.1 5.2 0 14.8 1.1 26 8.9-10.5 3.3-26 6.3-38.6.7z" fill="#fff" stroke="#191919" stroke-miterlimit="10" stroke-width="2"/><path d="m978.8 443.3c-19-2.5-36.1 26-37.7 28.6-5.8 9.9-6.5 16.5-10.5 34.6-9.7 44.1-14.9 66.5-29.3 80-13 12.1-28.2 15-32.2 15.6-17.1 2.7-32.6-3.7-62.8-16.6-25.5-10.9-28.6-14.9-42.5-16.5-7.1-.8-27.8-3.1-41.5 10.2-8.8 8.5-12.7 22.1-9.5 24.9 4.1 3.6 20.9-9.1 21.1-8.8.1.2-5 2.6-9.2 7.8-2.1 2.5-5.7 7.9-4.4 9.3 2.3 2.8 16.4-14.2 31.9-11.2 10.6 2 12.6 11.6 24.9 13.4 7.2 1.1 13.5-1.1 17.5-3 7 7.6 18.4 18.4 34.9 27.2 9.8 5.2 44.4 23.1 86.7 12.7 44.9-11 67.5-46.1 74.6-57.1 4-6.3 33.4-53.3 19.2-106-2.5-8.5-11.6-42.5-31.2-45.1z" fill="#fff" stroke="#191919" stroke-miterlimit="10" stroke-width="2"/><path d="m976.8 443.6c-6.5 3.4 6.1 27 4.5 60.8-1.5 32.5-15.4 56.5-21.6 67.5-8.4 14.7-19.5 33.9-41.6 46.4-29.7 16.8-66.5 14.3-92.7 2.9-7.8-3.4-15.7-14.4-32.9-21.1-7.5-2.9-13.4-4.1-20.3-5.5-16.9-3.3-31.9-6.3-45.8.7-6.6 3.4-12.1 8.6-11.7 9.3s8.1-3.2 14.9-6.9c-8.2 10.9-9.5 14-8.9 14.6.7.6 3.2-1.7 9.6-5.3 6.9-3.8 11.9-6.5 18-6 3.1.3 5.5 1.3 6.9 1.9 5.5 2.4 6.8 5.2 12.3 8 3.4 1.7 6.2 2.4 7.7 2.7 3.2.7 9.8 1.6 18.5-1.5 7.6 8 42.5 43.4 93.6 42.7 26.3-.4 45.6-10.2 53.2-14.1 41.7-21.7 58.3-60.2 62.5-70.8 13-32.8 17.6-81.4-6.2-111.9-5.7-7.4-15.5-16.7-20-14.4z" fill="#6c6d6d" opacity=".25"/><path d="m714.6 604.1c3.9-5.8 9-10.4 15.1-13.7 1.3-.7.1-2.6-1.1-1.9-6.4 3.5-11.8 8.4-15.9 14.5-.9 1.2 1.1 2.3 1.9 1.1z" fill="#191919"/><path d="m715.8 591.2c3.9-6.1 10.2-9.3 16.5-12.4 1.3-.6.2-2.6-1.1-1.9-6.7 3.2-13.3 6.7-17.4 13.2-.7 1.2 1.2 2.3 2 1.1z" fill="#191919"/><path d="m1005.5 479.6c-1.5 10.1-4.2 24.7-9 41.9-9.4 34-17.9 64.6-40.1 88.9-27.5 30-64.8 38.2-86.2 40.7 15.9 3.7 28.4 3 36.3 1.9 60-8.4 92.4-72.9 101.2-101.1 1.5-5 4.7-15.3 5.1-29.4.7-18.8-3.9-33.9-7.3-42.9z" fill="#6c6d6d" opacity=".29"/><path d="m754.2 600c5.7 2.8 13.5 5.9 23.1 7.7 7.6 1.4 14.4 1.7 19.8 1.5-13.7 7.3-20.8 6.4-24.8 4-2.5-1.5-5.3-4.5-13-9.8-2.1-1.5-3.9-2.7-5.1-3.4z" fill="#6c6d6d" opacity=".26"/><path d="m552 764.4v144.1c0 5.8 9 5.8 9 0 0-48 0-96.1 0-144.1 0-5.7-9-5.8-9 0z" fill="#161616"/><path d="m715.6 762.5v23.1c0 5.8 9 5.8 9 0 0-7.7 0-15.4 0-23.1 0-5.8-9-5.8-9 0z" fill="#161616"/><path d="m427.8 758.5c48.5-45.7 97-91.5 145.6-137.2 78.5 1.4 156.9 2.8 235.4 4.2-12.8 44.4-25.6 88.7-38.4 133.1-114.2-.1-228.4-.1-342.6-.1z" fill="#fff" stroke="#191919" stroke-miterlimit="10" stroke-width="2"/><path d="m430.7 763.7h263 73.7c5.8 0 5.8-9 0-9-87.7 0-175.3 0-263 0-24.6 0-49.1 0-73.7 0-5.8 0-5.8 9 0 9z" fill="#161616"/><path d="m456.4 762.2v298.4 83.6c0 5.8 9 5.8 9 0 0-99.5 0-199 0-298.4 0-27.9 0-55.7 0-83.6 0-5.8-9-5.8-9 0z" fill="#161616"/><path d="m730.7 762.2v298.4 83.6c0 5.8 9 5.8 9 0 0-99.5 0-199 0-298.4 0-27.9 0-55.7 0-83.6 0-5.8-9-5.8-9 0z" fill="#161616"/><path d="m460.9 947.9h211.8 60c5.8 0 5.8-9 0-9-70.6 0-141.2 0-211.8 0-20 0-40 0-60 0-5.8 0-5.8 9 0 9z" fill="#161616"/><path d="m807.6 625.5c-11.4 44.5-24.5 88.6-39.5 132-1.3 3.7 4.5 5.2 5.8 1.6 15-43.5 28.1-87.5 39.5-132 .9-3.7-4.8-5.3-5.8-1.6z" fill="#161616"/><path d="m328.8 1154h159.2c5.8 0 5.8-9 0-9-53.1 0-106.1 0-159.2 0-5.8 0-5.8 9 0 9z" fill="#161616"/><path d="m510.3 1152h36.7c5.8 0 5.8-9 0-9-12.2 0-24.5 0-36.7 0-5.8 0-5.8 9 0 9z" fill="#161616"/><path d="m669.5 1153.3h143.5c5.8 0 5.8-9 0-9-47.8 0-95.6 0-143.5 0-5.8 0-5.8 9 0 9z" fill="#161616"/><path d="m845.7 1150.1h25.6c5.8 0 5.8-9 0-9-8.5 0-17 0-25.6 0-5.8 0-5.8 9 0 9z" fill="#161616"/><path d="m280.6 1122.3h62c5.8 0 5.8-9 0-9-20.7 0-41.4 0-62 0-5.8 0-5.8 9 0 9z" fill="#161616"/><path d="m718 739.6c-61.7-1.6-123.5-3.1-185.2-4.7 36.6-35 73.1-70.1 109.7-105.1 42.2 2.2 84.5 4.4 126.7 6.6-17.1 34.5-34.1 68.8-51.2 103.2z" fill="#fff" stroke="#191919" stroke-miterlimit="10" stroke-width="2"/><path d="m640.4 629.1c-35.9 34.7-71.8 69.5-107.7 104.2-1.6-55.6-3.3-111.3-4.9-166.9l109.2-69c1 43.9 2.2 87.8 3.4 131.7z" fill="#fff" stroke="#191919" stroke-miterlimit="10" stroke-width="2"/><path d="m531.1 571.7c2.9 49.5 4.8 99.1 5.8 148.7 0 1 1.5 1 1.5 0-1-49.6-2.9-99.2-5.8-148.7-.1-.9-1.6-.9-1.5 0z" fill="#191919"/><path d="m531.9 571.9c33.5-21.8 67-43.6 100.5-65.4.8-.5.1-1.8-.8-1.3-33.5 21.8-67 43.6-100.5 65.4-.8.6-.1 1.9.8 1.3z" fill="#191919"/><path d="m632 506.4c-.1 39.9 1.1 79.9 3.7 119.7.1 1 1.6 1 1.5 0-2.5-39.9-3.8-79.8-3.7-119.7 0-.9-1.5-.9-1.5 0z" fill="#191919"/><path d="m537.9 722.5c32.8-31.7 65.7-63.4 98.5-95 .7-.7-.4-1.7-1.1-1.1-32.8 31.7-65.7 63.4-98.5 95-.6.7.4 1.8 1.1 1.1z" fill="#191919"/><path d="m689.8 705.5c6.1-9.7 12.2-19.5 18.1-29.4.5-.8-.8-1.6-1.3-.8-5.9 9.9-12 19.7-18.1 29.4-.6.8.7 1.6 1.3.8z" fill="#191919"/><path d="m707.5 675.8c7.9.3 15.8.3 23.7-.1 1 0 1-1.5 0-1.5-7.9.3-15.8.3-23.7.1-1 0-1 1.5 0 1.5z" fill="#191919"/><path d="m730.2 675.3c-4.5 9.8-9.1 19.6-13.7 29.4-.4.9.9 1.6 1.3.8 4.6-9.8 9.2-19.6 13.7-29.4.4-1-.9-1.7-1.3-.8z" fill="#191919"/><path d="m689.3 706.3c8.8 1.3 18.1.7 27 .3 1 0 1-1.5 0-1.5-8.7.4-17.9 1-26.6-.2-1-.2-1.4 1.3-.4 1.4z" fill="#191919"/><path d="m722.1 675.4c-4 10-8.6 19.7-13.8 29.1-.5.8.8 1.6 1.3.8 5.2-9.6 9.9-19.4 14-29.5.3-.9-1.1-1.3-1.5-.4z" fill="#191919"/><path d="m577.2 720.7c22-27.2 44.8-53.8 68.3-79.8.6-.7-.4-1.8-1.1-1.1-23.5 25.9-46.3 52.5-68.3 79.8-.6.8.5 1.8 1.1 1.1z" fill="#191919"/><path d="m603.8 722.4c19.7-27.5 40.5-54.1 62.3-79.9.6-.7-.4-1.8-1.1-1.1-21.9 25.9-42.7 52.6-62.5 80.2-.6.8.7 1.6 1.3.8z" fill="#191919"/><path d="m632.4 726.5c17.1-28.6 35.8-56.2 56-82.7.6-.8-.7-1.5-1.3-.8-20.2 26.5-38.9 54.1-56 82.7-.5.8.8 1.6 1.3.8z" fill="#191919"/><path d="m656.4 729c16.8-31.3 36.7-60.8 59.5-88 .6-.7-.4-1.8-1.1-1.1-22.9 27.3-42.9 56.9-59.8 88.3-.4.9.9 1.7 1.4.8z" fill="#191919"/><path d="m590 704.5c25.6-2.7 51.2.5 76.7 3.9 1 .1.9-1.4 0-1.5-25.4-3.4-51-6.7-76.7-3.9-.9.1-.9 1.6 0 1.5z" fill="#191919"/><path d="m602.9 689.9c24.2-.9 48.4.9 72.2 5.5.9.2 1.3-1.3.4-1.4-23.9-4.6-48.3-6.4-72.6-5.5-.9-.1-.9 1.4 0 1.4z" fill="#191919"/><path d="m614.5 675.8c23.3-1.5 46.6.6 69.3 6.2.9.2 1.3-1.2.4-1.4-22.8-5.7-46.2-7.8-69.7-6.3-1 .1-1 1.6 0 1.5z" fill="#191919"/><path d="m626.5 661.7c22.4.1 44.6 2.4 66.5 6.9.9.2 1.3-1.3.4-1.4-22-4.5-44.4-6.8-66.9-6.9-.9-.1-.9 1.4 0 1.4z" fill="#191919"/><path d="m638.4 648.6c21.3.4 42.5 2.9 63.2 7.6.9.2 1.3-1.2.4-1.4-20.9-4.7-42.2-7.3-63.6-7.6-1-.1-1 1.4 0 1.4z" fill="#191919"/><path d="m707 663.8c-9.8 14.4-19.5 28.8-29.3 43.2-.5.8.8 1.6 1.3.8 9.8-14.4 19.5-28.8 29.3-43.2.6-.9-.7-1.6-1.3-.8z" fill="#191919"/><path d="m541.4 642c12.5-5.3 26-2.3 39.2-2.5 11.1-.1 21.7-3.2 31.2-8.8.8-.5.1-1.8-.8-1.3-11.7 6.9-24.1 9.1-37.5 8.5-11.2-.5-22.3-1.6-32.9 2.9-.8.3-.1 1.6.8 1.2z" fill="#191919"/><path d="m575.1 635.8c21.4-12.1 31.3-37.6 53.6-48.3.9-.4.1-1.7-.8-1.3-22.4 10.8-32.2 36.2-53.6 48.3-.8.5-.1 1.8.8 1.3z" fill="#191919"/><path d="m602.3 564.5c-3.7-2.9-3.1-7.6-1-11.3 1-1.8 2.5-3.7 4.2-4.8 3.1-2 6-.4 8.4 1.7.7.6 1.8-.4 1.1-1.1-5-4.2-9.7-3.8-13.8 1.6-3.3 4.4-5 11 0 15 .8.6 1.9-.5 1.1-1.1z" fill="#191919"/><path d="m910.3 491.4c-27.4 30.4-34.8 63.8-38.8 82.7-7.3 35 .4 49 .9 115.5.2 28.3-1 51.2-1.9 65.6 6.2 4.8 44.6 33.4 95.9 24 38-6.9 60.9-30.7 68.1-38.8 1.7-9.5 4.1-23.5 6.9-40.5 14.8-91.7 22.1-138.2 12.9-171.5-5.5-20.2-19.1-52.2-57.7-85.3-16.2 3.4-55.1 13.8-86.3 48.3z" fill="#ec615b"/><path d="m938.2 473c9.5 28.4 14.6 52.7 17.6 70.5 7.9 47.1 19.8 117.7-13.7 186.1-10.7 21.8-23.2 37.8-32 47.7 11.6 2.7 34.6 6.4 62-.7 32.6-8.4 53-27.3 61.4-35.9 6.5-37.2 11.7-69.1 15.7-94 6.9-43.8 8.5-57.1 7.8-75.8-.8-24-1.9-49.2-16.3-76.4-13.8-26-33.2-41.6-45.1-49.6-9.7 1.7-23.4 5.3-37.9 13.7-8 4.8-14.5 9.9-19.5 14.4z" fill="#6c6d6d" opacity=".19"/><path d="m1051.8 520.7c-1.8.1 2 27.8-3.9 66-10.9 70.7-45.9 119.7-59.4 137.1-11.3 14.5-29 34.5-54.9 54.2 9.3 1.4 21.7 2 35.9-.7 33.7-6.3 55.1-27 63.3-35.9 2.1-12.2 5.5-31.3 9.8-54.9 10.1-55.2 12.1-61.8 13.7-79 4.4-46.9-2.4-86.8-4.5-86.8z" fill="#6c6d6d" opacity=".18"/><path d="m734.1 595c-1.9-1.3-5.7-3.7-5.3-5.7.8-3.2 12.3-3.7 20.6-2.3 5.6.9 15.8 3.8 26.5 13.9-12 1.7-29.3 2.2-41.8-5.9z" fill="#fff" stroke="#191919" stroke-miterlimit="10" stroke-width="2"/><path d="m1016.4 499.2c-20.1-5.9-43.6 21.2-45.7 23.8-8 9.5-9.9 16.3-17.4 34.7-18.2 45-27.7 67.7-45.7 79.5-16.1 10.6-33 11-37.5 11-18.9-.1-34.5-9.5-64.9-28.3-25.6-15.9-28.2-20.7-43-24.7-7.5-2-29.5-8-46.6 3.7-10.9 7.4-17.6 21.2-14.6 24.7 3.8 4.5 24.2-6.1 24.3-5.7.1.2-5.9 1.9-11.3 6.7-2.7 2.3-7.5 7.3-6.4 9.1 2 3.4 20.2-12.2 36.4-6.4 11 3.9 11.6 14.4 24.5 18.5 7.6 2.4 14.8 1.1 19.4-.2 6.2 9.3 16.7 22.6 32.9 34.7 9.7 7.2 43.9 32 91.4 28.3 50.4-3.9 81-37.2 90.5-47.5 5.5-5.9 45.4-50.6 39.3-108.8-.9-9.5-4.8-46.9-25.6-53.1z" fill="#fff" stroke="#191919" stroke-miterlimit="10" stroke-width="2"/><path d="m1014.2 499.2c-7.6 2.5 1.9 29.6-5.8 65.1-7.3 34.1-26.5 57.1-35.2 67.6-11.7 14.1-27 32.5-53.1 41.9-35 12.6-74.3 3.7-100.6-12.8-7.8-5-14.4-17.9-31.9-28-7.6-4.4-13.7-6.6-21-9.3-17.6-6.4-33.4-12.2-49.5-7.1-7.7 2.4-14.6 7-14.2 7.8.4.9 9.3-2 17.3-4.7-10.7 10.1-12.7 13.2-12.2 14 .6.8 3.8-1.3 11.3-3.9 8.2-2.9 13.9-4.8 20.5-3.2 3.3.8 5.7 2.3 7.2 3.2 5.5 3.4 6.4 6.7 11.8 10.6 3.3 2.4 6.3 3.6 7.9 4.2 3.3 1.3 10.3 3.4 20.2 1.6 6.8 9.8 38.3 53.2 93.6 61.2 28.5 4.1 51-2.9 59.9-5.8 48.8-15.8 73.5-53.6 79.9-64.1 19.8-32.4 33.3-83 12.9-119.4-4.8-9.1-13.8-20.6-19-18.9z" fill="#6c6d6d" opacity=".25"/><path d="m702.8 623.9c5.3-5.5 11.5-9.5 18.7-11.9 1.4-.5.8-2.6-.6-2.2-7.5 2.6-14.2 6.8-19.7 12.5-1 1.1.6 2.7 1.6 1.6z" fill="#191919"/><path d="m706.4 610.5c5.3-5.9 12.7-8.2 20.1-10.3 1.4-.4.8-2.6-.6-2.2-7.7 2.3-15.5 4.8-21 10.9-1.1 1.1.5 2.6 1.5 1.6z" fill="#191919"/><path d="m1038.9 542.2c-3.4 10.4-8.9 25.4-17 42.8-16.1 34.3-30.6 65.2-58.9 87.1-34.9 27-76.7 29.3-100.2 28.2 16.5 6.7 30.2 8.1 38.9 8.3 66.2 1.4 112.6-61.3 127-89.5 2.5-5 7.7-15.4 10.7-30.2 3.9-19.9 1.6-36.6-.5-46.7z" fill="#6c6d6d" opacity=".29"/><path d="m746.4 626.3c5.6 3.9 13.5 8.5 23.6 12.1 8 2.8 15.3 4.2 21.1 4.9-16.1 5.3-23.6 3.2-27.5 0-2.4-2-4.9-5.7-12.4-12.6-1.9-1.9-3.6-3.4-4.8-4.4z" fill="#6c6d6d" opacity=".26"/><path d="m861.4 297.5c-1.1 6.4-2.2 12.8-3.1 19.5-3.9 27.2-5.5 52.9-5.6 76.8 5.5-.6 10.9-1.2 16.4-1.7-.6 5.3-2.3 24.7 10.1 43.9 11.7 18.1 28.5 24.7 33.7 26.5-.6 9.8-1.1 19.5-1.7 29.3 10.8-9.6 25.5-20.9 44.2-31 14.3-7.7 27.8-13 39.3-16.6-12.9-16-17.8-31.1-19.9-39.8-3.6-15-2.9-27.9-2.2-39.3.7-11.7 2.4-21.4 3.9-28.2 4.7-21.4-7.6-55.3-32.1-67.5-24.2-12.1-60.3-1.9-83 28.1z" fill="#fff" stroke="#161616" stroke-miterlimit="10" stroke-width="2"/><path d="m866.8 392.8c2.8-.4 5.7-.7 8.5-1 1-.1 1-1.6 0-1.5-3 .3-5.9.7-8.9 1.1-.9 0-.5 1.5.4 1.4z" fill="#161616"/><path d="m957 313c-12.1 3.1-14.3 13.6-29.6 35.5-15.5 22.2-25.3 36.1-42.8 44.2-11.3 5.2-16.9 3.8-21.9 10.5-8.6 11.6-2.8 30.7 2.3 40.5 5.9 11.3 14.9 18.1 22.3 23.7 7.1 5.3 13.6 8.8 18.2 10.9-4.9-7.5-5.2-9.8-4.6-10.5 1.6-1.6 8.4 7 16.4 5.9 2.3-.3 6.4-1.6 15.5-15.9 6.2-9.7 10.4-16.4 13.2-26 6.1-20.6-2.5-26.2 0-53.3.4-4.1 3.2-36.2 14.6-38.3 4.1-.8 8.3 2.6 10.3 5.2 4.2 5.5 3.7 14.3-1.5 21.9 1.7-1.2 18-12.2 17.8-30.1 0-2.8-.1-13.1-7.9-19.8-8.9-7.6-21.3-4.6-22.3-4.4z" fill="#161616" stroke="#161616" stroke-miterlimit="10" stroke-width="2"/><ellipse cx="876.4" cy="351" fill="#161616" rx="4.2" ry="7.5"/><ellipse cx="844.4" cy="354.5" fill="#161616" rx="4.2" ry="7.5"/><path d="m838.1 342.2c2.7-3.1 6.9-3.4 9.9-.4 1.4 1.4 3.5-.8 2.1-2.1-4.1-4-10.4-3.9-14.2.4-1.1 1.5 1 3.6 2.2 2.1z" fill="#161616"/><path d="m870.9 337c3.5-2.9 8.1-2.5 11.1.8 1.3 1.4 3.4-.7 2.1-2.1-4.2-4.5-10.7-4.7-15.4-.8-1.4 1.2.7 3.3 2.2 2.1z" fill="#161616"/><path d="m858 309.4c1.1-7.2 3.9-19 11.6-31.2 2.7-4.3 8.5-13.4 17.7-19.6 17.6-11.7 44.7-10.8 64.4 3.6 19.3 14.1 28.9 39.3 24.7 64.3-39.5-5.6-78.9-11.3-118.4-17.1z" fill="#5222d0"/><path d="m793.4 310.3c60.7 7.8 121.5 15.6 182.2 23.3 5.7.7 5.7-8.3 0-9-60.7-7.8-121.5-15.6-182.2-23.3-5.7-.8-5.7 8.2 0 9z" fill="#161616"/><path d="m909.4 251.3c15.6 3.4 27.4 16 29.4 31.1 1.8 13.2-4 26.6-15 34.8 17.3 2.3 34.7 4.7 52 7 .9-4.6 1.7-11.6.6-19.8-2.6-19.2-13.7-31.5-17.3-35.2-3.9-4-17.7-17.4-38.2-18.6-4.7-.2-8.7.2-11.5.7z" fill="#321693"/></svg>